<?xml version="1.0" standalone="no"?>
<svg viewBox="0 0 200 200" xmlns="http://www.w3.org/2000/svg">
  <path fill="#BAE6FF" d="M43,-74.3C54.4,-67.9,61.6,-53.8,70.1,-40.1C78.7,-26.4,88.7,-13.2,90,0.7C91.3,14.7,83.9,29.4,74.4,41.5C65,53.7,53.5,63.2,40.7,70.8C28,78.5,14,84.3,-0.5,85.1C-14.9,85.9,-29.9,81.7,-43,74.3C-56.1,66.9,-67.5,56.2,-75.9,43.3C-84.4,30.3,-90,15.2,-89.3,0.4C-88.7,-14.4,-81.7,-28.8,-72.3,-40C-62.8,-51.3,-50.9,-59.4,-38.4,-65.2C-26,-71,-13,-74.5,1.4,-76.9C15.8,-79.3,31.6,-80.7,43,-74.3Z" transform="translate(100 100)" />
</svg>
